<mxfile host="app.diagrams.net" modified="2021-03-23T06:40:50.057Z" agent="5.0 (Macintosh)" etag="051BVHzMtsGXZ4NYtksS" version="14.5.0" type="github">
  <diagram id="9IMghsSp_HW23RW7wn-J" name="Page-1">
    <mxGraphModel dx="1355" dy="1102" grid="1" gridSize="15" guides="1" tooltips="1" connect="0" arrows="0" fold="1" page="1" pageScale="1" pageWidth="1100" pageHeight="850" math="0" shadow="1">
      <root>
        <mxCell id="0" />
        <mxCell id="1" parent="0" />
        <mxCell id="KhhMZYQ1L5fq1iBN_DM4-1" value="&lt;div style=&quot;font-size: 19px;&quot;&gt;Classical&lt;/div&gt;&lt;div style=&quot;font-size: 19px;&quot;&gt;Mechanics&lt;br style=&quot;font-size: 19px;&quot;&gt;&lt;/div&gt;" style="rounded=1;whiteSpace=wrap;html=1;fillColor=#f5f5f5;strokeColor=#666666;fontStyle=1;fontSize=19;gradientColor=#b3b3b3;" parent="1" vertex="1">
          <mxGeometry x="241" y="441" width="120" height="60" as="geometry" />
        </mxCell>
        <mxCell id="KhhMZYQ1L5fq1iBN_DM4-2" value="&lt;div style=&quot;font-size: 19px&quot;&gt;Quantum&lt;/div&gt;&lt;div style=&quot;font-size: 19px&quot;&gt;Mechanics&lt;br style=&quot;font-size: 19px&quot;&gt;&lt;/div&gt;" style="rounded=1;whiteSpace=wrap;html=1;fillColor=#e6d0de;strokeColor=#996185;fontStyle=1;fontSize=19;gradientColor=#F571EC;" parent="1" vertex="1">
          <mxGeometry x="241" y="519" width="120" height="60" as="geometry" />
        </mxCell>
        <mxCell id="KhhMZYQ1L5fq1iBN_DM4-3" value="&lt;div style=&quot;font-size: 19px&quot;&gt;Relativistic&lt;/div&gt;&lt;div style=&quot;font-size: 19px&quot;&gt;Mechanics&lt;br style=&quot;font-size: 19px&quot;&gt;&lt;/div&gt;" style="rounded=1;whiteSpace=wrap;html=1;fillColor=#dae8fc;strokeColor=#6c8ebf;fontStyle=1;fontSize=19;gradientColor=#7ea6e0;" parent="1" vertex="1">
          <mxGeometry x="380" y="441" width="120" height="60" as="geometry" />
        </mxCell>
        <mxCell id="KhhMZYQ1L5fq1iBN_DM4-4" value="&lt;div style=&quot;font-size: 19px&quot;&gt;Quantum&lt;/div&gt;&lt;div style=&quot;font-size: 19px&quot;&gt;Field Theory&lt;br style=&quot;font-size: 19px&quot;&gt;&lt;/div&gt;" style="rounded=1;whiteSpace=wrap;html=1;strokeColor=#996185;fontStyle=1;fontSize=19;fillColor=#FFFFFF;gradientColor=#AB30F2;" parent="1" vertex="1">
          <mxGeometry x="380" y="519" width="120" height="60" as="geometry" />
        </mxCell>
        <mxCell id="_jJjkpyCZU4iWKg7Ji_U-2" value="Actor" style="shape=umlActor;verticalLabelPosition=bottom;verticalAlign=top;html=1;outlineConnect=0;" vertex="1" parent="1">
          <mxGeometry x="180" y="315" width="30" height="60" as="geometry" />
        </mxCell>
        <mxCell id="_jJjkpyCZU4iWKg7Ji_U-4" value="" style="shape=flexArrow;endArrow=classic;html=1;shadow=1;sketch=1;fillColor=#ffffff;gradientDirection=east;gradientColor=#80F7FF;strokeColor=none;" edge="1" parent="1">
          <mxGeometry width="50" height="50" relative="1" as="geometry">
            <mxPoint x="241" y="416" as="sourcePoint" />
            <mxPoint x="495" y="416" as="targetPoint" />
          </mxGeometry>
        </mxCell>
        <mxCell id="_jJjkpyCZU4iWKg7Ji_U-5" value="" style="shape=flexArrow;endArrow=classic;html=1;shadow=1;sketch=1;fillColor=#ffffff;gradientDirection=south;gradientColor=#FF33FF;strokeColor=none;" edge="1" parent="1">
          <mxGeometry width="50" height="50" relative="1" as="geometry">
            <mxPoint x="214" y="440" as="sourcePoint" />
            <mxPoint x="214" y="570" as="targetPoint" />
          </mxGeometry>
        </mxCell>
      </root>
    </mxGraphModel>
  </diagram>
</mxfile>
